<svg id="SvgjsSvg1008" xmlns="http://www.w3.org/2000/svg" version="1.1" xmlns:xlink="http://www.w3.org/1999/xlink" xmlns:svgjs="http://svgjs.com/svgjs" width="54" height="53"><defs id="SvgjsDefs1009"></defs><path id="SvgjsPath1010" d="M1159.54 4799L1116.3899999999999 4799C1113.4299999999998 4799 1110.9999999999998 4801.38 1110.9999999999998 4804.3L1110.9999999999998 4846.7C1110.9999999999998 4849.61 1113.4299999999998 4852 1116.3899999999999 4852L1159.54 4852C1162.51 4852 1164.93 4849.61 1164.93 4846.7L1164.93 4804.3C1164.93 4801.38 1162.51 4799 1159.54 4799ZM1156.84 4804.3L1156.84 4812.25L1151.4499999999998 4812.25C1149.83 4812.25 1148.7499999999998 4813.31 1148.7499999999998 4814.9L1148.7499999999998 4820.2L1156.8399999999997 4820.2L1156.8399999999997 4828.15L1148.7499999999998 4828.15L1148.7499999999998 4846.7L1140.6599999999999 4846.7L1140.6599999999999 4828.15L1135.2699999999998 4828.15L1135.2699999999998 4820.2L1140.6599999999999 4820.2L1140.6599999999999 4813.57C1140.6599999999999 4808.54 1144.9799999999998 4804.299999999999 1150.1 4804.299999999999Z " fill="#ffffff" transform="matrix(1,0,0,1,-1111,-4799)"></path></svg>