<svg id="SvgjsSvg1000" xmlns="http://www.w3.org/2000/svg" version="1.1" xmlns:xlink="http://www.w3.org/1999/xlink" xmlns:svgjs="http://svgjs.com/svgjs" width="54" height="53"><defs id="SvgjsDefs1001"></defs><path id="SvgjsPath1007" d="M1247.16 4799L1199.47 4799C1197.91 4799 1196.64 4800.25 1196.64 4801.79L1196.64 4848.65C1196.64 4850.19 1197.91 4851.44 1199.47 4851.44L1247.16 4851.44C1248.73 4851.44 1250 4850.19 1250 4848.65L1250 4801.79C1250 4800.25 1248.73 4799 1247.16 4799ZM1239.14 4828.54C1240.5900000000001 4829.93 1242.13 4831.24 1243.44 4832.79C1244.02 4833.47 1244.56 4834.17 1244.98 4834.96C1245.57 4836.09 1245.03 4837.33 1244 4837.4L1237.61 4837.4C1235.9599999999998 4837.53 1234.6499999999999 4836.879999999999 1233.54 4835.7699999999995C1232.6599999999999 4834.879999999999 1231.84 4833.94 1230.99 4833.03C1230.64 4832.65 1230.27 4832.3 1229.84 4832.0199999999995C1228.97 4831.459999999999 1228.2099999999998 4831.629999999999 1227.7099999999998 4832.53C1227.1999999999998 4833.44 1227.0799999999997 4834.44 1227.0399999999997 4835.46C1226.9699999999998 4836.94 1226.5099999999998 4837.33 1224.9999999999998 4837.39C1221.7699999999998 4837.54 1218.6999999999998 4837.06 1215.8599999999997 4835.46C1213.3399999999997 4834.05 1211.3999999999996 4832.06 1209.6999999999996 4829.8C1206.3999999999996 4825.400000000001 1203.8699999999997 4820.58 1201.5999999999997 4815.610000000001C1201.0899999999997 4814.490000000001 1201.4599999999996 4813.89 1202.7199999999996 4813.870000000001C1204.8099999999995 4813.830000000001 1206.8899999999996 4813.840000000001 1208.9799999999996 4813.870000000001C1209.8199999999995 4813.880000000001 1210.3899999999996 4814.360000000001 1210.7099999999996 4815.150000000001C1211.8399999999997 4817.870000000001 1213.2199999999996 4820.460000000001 1214.9499999999996 4822.870000000001C1215.4099999999996 4823.510000000001 1215.8899999999996 4824.150000000001 1216.5599999999995 4824.6C1217.2999999999995 4825.1 1217.8599999999994 4824.93 1218.2099999999996 4824.120000000001C1218.4299999999996 4823.6 1218.5299999999995 4823.050000000001 1218.5799999999995 4822.500000000001C1218.7399999999996 4820.610000000001 1218.7599999999995 4818.710000000001 1218.4799999999996 4816.820000000001C1218.2999999999995 4815.64 1217.6199999999997 4814.880000000001 1216.4199999999996 4814.660000000001C1215.8099999999997 4814.540000000001 1215.8999999999996 4814.320000000001 1216.1999999999996 4813.9800000000005C1216.7099999999996 4813.39 1217.1999999999996 4813.02 1218.1599999999996 4813.02L1225.3799999999997 4813.02C1226.5199999999998 4813.240000000001 1226.7699999999998 4813.740000000001 1226.9299999999996 4814.870000000001L1226.9399999999996 4822.750000000001C1226.9199999999996 4823.1900000000005 1227.1599999999996 4824.4800000000005 1227.9499999999996 4824.770000000001C1228.5899999999997 4824.970000000001 1229.0199999999995 4824.470000000001 1229.3999999999996 4824.0700000000015C1231.1299999999997 4822.270000000001 1232.3599999999997 4820.140000000001 1233.4699999999996 4817.930000000001C1233.9499999999996 4816.960000000001 1234.3699999999997 4815.950000000002 1234.7799999999995 4814.940000000001C1235.0899999999995 4814.200000000002 1235.5599999999995 4813.830000000002 1236.4099999999996 4813.840000000001L1243.3699999999997 4813.850000000001C1243.5699999999997 4813.850000000001 1243.7799999999997 4813.850000000001 1243.9799999999996 4813.890000000001C1245.1499999999996 4814.080000000001 1245.4699999999996 4814.580000000001 1245.1099999999997 4815.700000000002C1244.5399999999997 4817.470000000002 1243.4299999999996 4818.940000000001 1242.3499999999997 4820.410000000002C1241.1899999999996 4821.990000000002 1239.9499999999996 4823.510000000002 1238.7999999999997 4825.100000000001C1237.7399999999998 4826.550000000001 1237.8299999999997 4827.280000000002 1239.1399999999996 4828.540000000001Z " fill="#ffffff" transform="matrix(1,0,0,1,-1196,-4799)"></path></svg>